<?xml version="1.0" encoding="utf-8"?>
<!-- Generator: Adobe Illustrator 25.0.1, SVG Export Plug-In . SVG Version: 6.00 Build 0)  -->
<svg version="1.1" id="Layer_1" xmlns="http://www.w3.org/2000/svg" xmlns:xlink="http://www.w3.org/1999/xlink" x="0px" y="0px"
	 viewBox="0 0 2000 2000" style="enable-background:new 0 0 2000 2000;" xml:space="preserve">
<style type="text/css">
	.st0{fill:#FFFFFF;}
	.st1{fill:#F6C30B;}
	.st2{fill:#F3C50B;}
	.st3{fill:#F5C208;}
	.st4{fill:#F6C20A;}
	.st5{fill:#F7C209;}
	.st6{fill:#F4C30A;}
	.st7{fill:#F9BE06;}
	.st8{fill:#F5C410;}
	.st9{fill:#F2C50C;}
	.st10{fill:#F8C207;}
	.st11{fill:#F7C20F;}
	.st12{fill:#F8C415;}
	.st13{fill:#F7C201;}
	.st14{fill:#D8271C;}
	.st15{fill:#145692;}
	.st16{fill:#155394;}
	.st17{fill:#135293;}
	.st18{fill:#F5C00F;}
	.st19{fill:#165493;}
	.st20{fill:#155595;}
	.st21{fill:#0F4E91;}
	.st22{fill:#0C5290;}
	.st23{fill:#1A5694;}
	.st24{fill:#3065A3;}
	.st25{fill:#D63127;}
	.st26{fill:#104D94;}
	.st27{fill:#003B87;}
	.st28{fill:#03428C;}
	.st29{fill:#125388;}
	.st30{fill:#125191;}
	.st31{fill:#135394;}
	.st32{fill:#135696;}
	.st33{fill:#175696;}
	.st34{fill:#0E4F8C;}
	.st35{fill:#F6C105;}
	.st36{fill:#05458A;}
	.st37{fill:#FECA31;}
	.st38{fill:#F4C40E;}
	.st39{fill:#386CA2;}
	.st40{fill:#FBBF07;}
	.st41{fill:#044A90;}
	.st42{fill:#BE220A;}
	.st43{fill:#C75B0F;}
	.st44{fill:#064786;}
	.st45{fill:#195598;}
	.st46{fill:#FEC636;}
	.st47{fill:#366A9B;}
	.st48{fill:#C44701;}
	.st49{fill:#00418C;}
	.st50{fill:#CDDBE9;}
	.st51{fill:#064C8B;}
	.st52{fill:#07468D;}
	.st53{fill:#2A659D;}
	.st54{fill:#F8C009;}
	.st55{fill:#054887;}
	.st56{fill:#FEFEFE;}
	.st57{fill:#5080A7;}
	.st58{fill:#024286;}
	.st59{fill:#F3C203;}
	.st60{fill:#DB241D;}
	.st61{fill:#CC2001;}
	.st62{fill:#E0211E;}
	.st63{fill:#FAC20B;}
	.st64{fill:#15558F;}
	.st65{fill:#135094;}
	.st66{fill:#37649B;}
</style>
<circle class="st0" cx="986.7" cy="997.5" r="945.3"/>
<g>
	<g>
		<path class="st1" d="M1915.4,611.9c50.4,77.1,50.4,171,84.1,253.7c0,90.2,0,180.3,0,270.3c-45.8,126.6-71.8,261-151.1,374
			c-23.9-3.7-40.9-17.3-53.5-37.3c-9-29.8,6-54.8,17.4-80c99.1-217.5,119.4-440.2,45.5-669.5c-7.7-24.1-13.8-48.6-8.1-74.4
			C1861.7,618.8,1880.9,601.7,1915.4,611.9z"/>
		<path class="st2" d="M1137.6,3.7c129.7,37.6,261.3,70.8,373.7,151.2c-1.6,30-14.1,51.6-45.3,58.9c-46.5-2.4-84.3-29-124.5-47.6
			c-122.1-56.8-256-53.8-384.1-79.6c-38.3-12.4-75.9-26.4-93.4-67.5c3.1-4.7,4.1-9.8,3.2-15.4C957.3,3.7,1047.5,3.7,1137.6,3.7z"/>
		<path class="st3" d="M1806.9,1476c21.3,2.4,33.8,15.3,41.7,34.1c-168.2,258.3-389.6,437.1-706.9,472.3
			c-27.7,15.2-60.1-1.4-87.9,12.7c-34.2,0-68.4,0-102.6,0c-27.9-14.1-60.1,2.6-87.7-12.7c-184.9-16.7-345.9-88.9-486.2-209.3
			c-18.7-24-23.1-49.1-6.7-76.2c24.7-17.7,42.4,0.4,59.7,13.3c167.6,124.7,358.9,193.9,564.4,192c278.4-2.6,521-103.6,702.2-326.2
			C1728.5,1537.2,1752.7,1490.1,1806.9,1476z"/>
		<path class="st4" d="M102.3,1424.6C-89.2,1084,7.1,555.8,309.1,290.1c33.6,2.9,48.1,21.9,46.6,54.7c-6,31.5-23.9,57.3-44.1,80.5
			c-156.2,178.8-209,393.3-216.2,623.6c-0.5,29.6-1.1,59.3,10.4,87.5c14.9,111.7,66.3,213.6,86.4,323.9
			C145.9,1490.2,129,1444.9,102.3,1424.6z"/>
		<path class="st5" d="M864,19.1c29.8,18.2,59.7,36.4,89.7,54.6c-3.1,2.6-6.3,5.3-9.5,8.1c-30.1,14.4-65.4,7.3-95,23.6
			c-121.5,36.7-245.8,65.8-354.7,135.8c-14.1,9.1-31,11.8-47.5,3.6c-24.9-42.3,20.6-60.9,30.6-91.5C595.8,78.2,723.6,30.7,864,19.1z
			"/>
		<path class="st6" d="M102.3,1424.6c30.7,10.4,54.5,41.5,92.1,31.5c82.2,60.6,134.2,145.4,185,231c-0.7,28.6-1.5,57.3-2.2,85.9
			C253.7,1682.1,165.4,1563.2,102.3,1424.6z"/>
		<path class="st7" d="M477.5,153.3c-10.6,30.2-21.1,60.3-31.7,90.5c-10.4,57.1-45.4,89.9-101,102.6c2.4-27.9-23.8-37.7-35.8-56.3
			C359.7,237.6,412.5,188,477.5,153.3z"/>
		<path class="st8" d="M863.4,1982.4c29.7,1.2,61.3-11.6,87.7,12.7C921,1996.8,890.8,1999.2,863.4,1982.4z"/>
		<path class="st8" d="M1053.7,1995c26.4-24.2,58.2-11.6,87.9-12.7C1114.1,1999.2,1083.8,1996.9,1053.7,1995z"/>
		<path class="st9" d="M1694.7,294c78.5,70.3,133.9,158.2,187.9,247.1c16,39.9-8.1,49-39.9,52.1c-86.7-56.8-131.8-145.7-179.4-232.9
			C1660.5,332,1662.5,305.7,1694.7,294z"/>
		<path class="st10" d="M1694.7,294c-13.9,21.1-17.8,44.9-18.2,69.6c-84.2-30.8-149.2-86.1-201-158.2c11.8-16.9,23.8-33.7,35.6-50.6
			C1585.8,183.6,1634.6,246.2,1694.7,294z"/>
		<path class="st11" d="M1826,579.8c27-1,54-2,56.6-38.7c18.3,20.1,30,43.4,32.8,70.8c-19.6,10.8-43,16.7-53.8,39.5
			C1825.5,639.6,1814.2,615.4,1826,579.8z"/>
		<path class="st12" d="M74.8,1046.2c15.4,28.2,13.6,58.7,12.2,89.3C62.7,1108.4,75.1,1076.5,74.8,1046.2z"/>
		<path class="st2" d="M953.4,72.6C921,90.4,885.5,86.2,850.6,86.9C881.6,58.5,918.9,75.6,953.4,72.6z"/>
		<path class="st13" d="M1087,1170.6c110.9-1,222,0.2,332.8-4c57.5-2.2,65.7,24.7,55.7,70.8c-26,3.7-26.6-10.6-23.8-20.5
			c8,55.8-27.6,109.7-44.8,168.5c-49.7,82.6-122.6,133.8-215.3,157.7c-24.9,12.2-58.4-5.2-78.7,23c-11.9,0.7-23.5-0.2-34.9-4.1
			c-63.2,7.3-126.2-6.2-189.3,0.5c-8.5,3.6-16.7,2.9-24.2-2.2c-86.2-14.1-158.5-53.7-218.5-116.8c-14.7-19.5-3.1-62.9-49.1-54.1
			c-59.1-59.1-69.9-136.9-83.4-213.6c30.6-28.1,68.6-6.8,102.1-15.7c71.8,67.5,150,69.5,232.7,22.1c30.2-17.3,63.5-16.4,96.7-17.8
			C992.9,1159.4,1039.6,1170.6,1087,1170.6z"/>
		<path class="st14" d="M951.8,376.9c33.7-7.7,67.4-7.5,101.1,0.1c18.2,82.8,6.8,166.6,7.1,249.9c0.1,46.8,13.1,62.4,61.4,62.9
			c105.6,1.1,211.8-12.2,317,7.1c16,118.4,16,118.4-101.7,118.4c-72.6,0-145.4,2.1-217.9-0.7c-41.4-1.6-52.2,14.3-51.6,53.2
			c1.6,94.9-0.6,189.9-1.2,284.8c-5.7,4.6-12.1,5.5-18.8,2.4c-6.2-3-12.2-6.5-18-10.1c-24.9-9-47.9-4.6-69.5,9.8
			c-7.2,3.4-14.8,4.4-22.6,3c-6.8-4.4-11.9-10.2-15.5-17.3c-17.8-73.9-5.2-149.1-9.1-223.6c-1.7-32.7,2.9-68.9-49.6-78.6
			c-7.8,30.8,38.1,69.1-8.8,92.3C794,945.4,734.8,953,678.9,917.4c-39.4-59.6-118-88.7-122.1-177.9c-2.2-47.9,45.1-57.3,50.6-96.6
			c1.2-9.2,20.4,14.3,25,29c93.6,36.8,190.8,10.2,286.3,14.1c30.5,1.2,23.3-32.1,24.7-53.3c20.3-46.5,67.3-81.9,58.1-137.5
			c4.7-13.7-10.9-8,0.2-7.1c2.1,0.1,2,3-0.5,8.3c-11.2,25.4-10.7,71.8-57.8,31.8C948.1,477.7,934.2,426.4,951.8,376.9z"/>
		<path class="st15" d="M1278.7,226.3c3,56.7,2.5,109.2-80.8,84.3c-29-8.7-82.6,3.6-61.7-49.6c17.4-44.5-15-150.3,100.1-106.2
			c12.4,4.7,23.8,12.1,35.7,18.2C1269.7,191.3,1272.8,209,1278.7,226.3z"/>
		<path class="st16" d="M501.4,1609.1c24.2,1.6,29.3-45.8,55.8-21.3c17.7,16.3-2.2,39-11.7,51.9c-18.5,25.1-33.9,72.5-67.3,63.3
			c-54.2-14.9-11.3-68.1-23.1-101.3c-30.5-6.3-29,52.6-65.2,31.7c-19.5-11.2-15.8-28.1-1.1-41c31.7-28,45.5-91.3,91.9-82.8
			C529.5,1518.3,490,1571.9,501.4,1609.1z"/>
		<path class="st17" d="M318.4,629.4c5.3,25,57.3,21.8,36.3,56.5c-24,39.7-50,1.9-70.3-8.6c-39.7-20.3-101.1-29.7-52-103.5
			c32.1-48.2,53.6-72.5,96.9-16.5c3.1,4.1,5.1,9.3,8.8,12.8c16.5,15.5,62.8-7.6,55.7,31.5C387.6,635.9,342.4,600.7,318.4,629.4z"/>
		<path class="st18" d="M866.8,916c12.3,48.1-1,82.9-51,99c-54.3,1.9-109.1,9.9-162.3-9c-3-2.5-6-5.1-9-7.7
			c5.7-29.5,36.8-48.1,34.3-81C741.4,916.9,804.1,916.4,866.8,916z"/>
		<path class="st19" d="M1657.9,1357c24.4,5.2,40.9,8.2,57.1,12.3c23.8,6,58.9-3.5,69,20.4c15,35.4-29.6,29-44,45.1
			c-7.3,8.1-12.1,18.5-17.8,28.1c-10.8,17.9,22.8,50.7-11.3,55.7c-28.7,4.1-42.2-28-56.2-51.2c-8.6-14.2-19.8-27.1-31.6-38.8
			c-16-16-20.3-33-8.2-52.4C1626.9,1356.6,1644.7,1352.3,1657.9,1357z"/>
		<path class="st20" d="M1812.1,818.4c-23.8,20.6,20.8,53.2-12.1,73.5c-33.1-4.1-28.6-47.5-51.9-61.8c-8.6,7.2-14.8,9.8-15.8,13.8
			c-6.3,24,41.8,46.3,2.5,70.9c-3.5,2.2-19.3-5.6-19.3-8.8c-0.7-40.4-45.8-87.9-10.6-116.6c30.6-25,84.9-30.7,127.7-27.9
			c33.6,2.2,12.7,51.7,31.7,75.6c9.3,11.7,7.7,39.5-8.7,43.8c-33.2,8.5-22.4-21.9-24.9-38.5C1829.1,830.9,1828.3,820.4,1812.1,818.4
			z"/>
		<path class="st21" d="M721.8,290.9c1.9-10.7,1.7-13.7,2.9-16.2c18.2-38.8-23.1-109.9,44.8-117c58.3-6.2,49.9,77.7,94.4,103.5
			c13.3,7.7,2.7,36.6-18.7,31.2c-37.2-9.3-68.9-17.4-88.8,27.4c-2.1,4.7-28,5.7-29.3,2.6C722,310.6,722.5,296.5,721.8,290.9z"/>
		<path class="st22" d="M1740.3,525.5c10.7,25-1.2,33-9.7,44.1c-30.7,40.4-16.7,59.4,31.2,59.9c13.1,0.1,37.1-3,32.3,13.3
			c-12.4,43-68.4,35.3-92.4,69.4c-5.6,8-30.7,13.6-34.7,9.2c-11.2-12.2-9.6-27.1,1.4-44.5c28.6-45.5,26.9-47.6-24.1-47.3
			c-15,0.1-27.5,2-33.5-14.9c-6.1-17.3,6.1-25.4,17.4-33.3C1662,557.8,1697.2,536.9,1740.3,525.5z"/>
		<path class="st23" d="M1424.7,375.7c-2.6,11.4,33,30.2-2.7,33.6c-39,3.6-64.4-30.8-88.8-53.6c-22.5-21,9-45.9,23-61.8
			c23-26.4,18.3-94.1,91.4-54.2c82.1,44.9-22.8,55-9.1,83.8C1431.8,340.4,1407.1,352.5,1424.7,375.7z"/>
		<path class="st24" d="M1801.8,970.4c16.7,0,33.5-0.5,50.1,0.1c15.2,0.6,27,7.3,28.8,23.6c2.6,22.9-12.8,28.1-31.1,28.2
			c-46,0.2-98.4-9.7-93,64.9c0.2,3.5-15.9,12.7-18.2,11.1c-7.8-6-15.8-14.7-18.8-23.9C1696.1,1000.4,1720.3,970,1801.8,970.4z"/>
		<path class="st25" d="M1438.4,696.8c-103.7,0.1-207.4-2.7-310.9,1.5c-60.3,2.5-78.3-20.1-75.7-77.7c3.9-81.1,1-162.4,1.1-243.7
			c34.1,79.2,11.4,162.3,13.7,243.2c1.4,52,16.8,64.2,67.1,65.3C1235.3,687.9,1337.9,667,1438.4,696.8z"/>
		<path class="st26" d="M244.8,830.4c5.3-1.4,10.8-2.2,16-4c29.7-9.9-2.7-72.2,35.8-58.2c46.4,16.9-6.8,54.1-2.9,85.6
			c6.1,46.9-36.4,31.3-59.3,25.9c-58.9-14.2-127.3-26.4-75.4-115c16.8-7.7,22.9,7.1,32.3,15c7.8,6.1,16.8,9.3,26.2,11.9
			C236.9,797.3,228.2,822.7,244.8,830.4z"/>
		<path class="st25" d="M952.8,612.3c7.1,61.6-12.4,93.1-82.2,86.1c-57.7-5.8-116.5-0.6-174.7-1.5c-23.8-0.4-51.7,7.1-63.5-25
			c87.4,25.6,176.7,6,265,11.9c45.1,3.1,36.1-29.6,38.9-56.2c9.2-83.3-18.7-169,15.5-250.7c0.4,55.7,0.7,111.4,1.2,167.3
			C972.2,566.9,972.2,589.6,952.8,612.3z"/>
		<path class="st27" d="M155.5,1035.2c3.6,2.7,4.8,6.3,3.7,10.8c26.2,24,54,18.3,82.1,4.1c0.2-26.2,0.2-26.7-28.6-30.3
			c-12.7-1.6-21.5-6.6-21-19.6c0.6-15.8-7.8-36.1,8.2-46.3c16.5-10.4,36.6-9.6,54.6,1.5c36.9,22.6,27.5,60.1,21.8,90.2
			c-6.2,32.7-31,58.1-68.5,60.3c-28.5,1.7-56.1-2-69.6-33.3C133.5,1055.2,123.3,1035.4,155.5,1035.2z"/>
		<path class="st28" d="M457.3,426.1c10.8,20.5-43.9,7-18.4,37.2c18.3,21.8,26.1-4.5,39.2-5c12.4,13.3,8.7,27.7,2.9,42.3
			c-12.8,16.8-26.5,43.5-49.7,20.3c-30.3-30.2-73-53.1-84.8-95.9c-5.8-21.4,20.8-34.6,45.5-33.5c5.2-3.5,10.8-5.3,17.2-5.2
			c8.6,3.2,16.5,7.7,23.6,13.7c4.8,3.6,9.5,7.6,13.7,11.8C450.2,416.4,453.8,421.1,457.3,426.1z"/>
		<path class="st29" d="M1676.4,452c-59.9-25.4-93.3,4.1-125,41.7c-8.1,9.6-17.4,24.6-32.6,7.2c-13.1-14.9-14.8-28.4,2.7-41.9
			c29.5-22.6,68.8-37.4,44.6-91.5c-7.1-16,29.1-11.9,36.8-4C1629.8,390.8,1652.3,422.1,1676.4,452z"/>
		<path class="st30" d="M563.1,240.6c77.2-7.8,91.5,49.1,99.1,97.5c5.8,37.2-29.5,56.5-66.4,59.7c-13.8,1.2-29-1.6-34.8-16.3
			c-2.1-5.5,3.4-20.4,6.7-20.9c96.9-11.9,22.1-50.2,12.2-78.1C575.5,269.9,570.1,257.7,563.1,240.6z"/>
		<path class="st31" d="M1390.5,1679.7c-17.9-23.6-31.2-47.3-0.4-71.1c34.1-19.5,52.2,34.3,85.4,18.5c55-5.6,80,11.3,51.6,68.4
			c-13.9-0.2-27.4,8.3-41.7,2.5C1453.8,1692,1421.4,1690.3,1390.5,1679.7z"/>
		<path class="st32" d="M1087.7,1792.9c38.9-15.3-7-65.9,41-84.6c9.9,32.8,22.8,64.4,28.1,97.1c3.1,19.2,21.3,46.3-6.7,59.9
			c-34.3,16.8-49.2-11.2-63.5-35.6C1077.5,1817.2,1076.1,1804.9,1087.7,1792.9z"/>
		<path class="st33" d="M435.1,1441.8c-4.6,32.7-31.7,40.5-51.6,53c-24.5,15.3-41.8,47.6-77,39.5c-6.6-1.5-16.3-22.6-13.7-26
			c31.1-39.5,72.6-66.2,118.8-84.6C416.6,1421.8,427.8,1435.8,435.1,1441.8z"/>
		<path class="st34" d="M1560.3,1476c27.1,34.3,56.8,70.9,84.9,108.7c2.9,3.9-2.2,16.4-7,22.3c-6.3,7.8-15.8,17.5-27.2,7.2
			c-31-28-61.3-56.6-91.6-85.2c-10.1-9.5-8.7-19.5,1.4-28C1526.7,1496.1,1533.8,1492.7,1560.3,1476z"/>
		<path class="st35" d="M1407.1,1385.4c-19.8-68,42.4-118.6,26.9-200.8c22.6,28.7,32.1,40.8,41.7,52.7
			C1471.1,1295.2,1452,1346.2,1407.1,1385.4z"/>
		<path class="st36" d="M1087.7,1792.9c-0.4,12.3-0.9,24.6-1.2,36.9c-11.3-6.7-22.6-13.6-33.9-20.3c-11.2-6.8-27.9-0.6-35.7-15.3
			c-4-23.1-39.7-49.6,1-68.1c34.8-15.9,34.2,26,50.6,40.4C1076.6,1773.6,1081.5,1784,1087.7,1792.9z"/>
		<path class="st37" d="M1087,1558.7c11.2-1,22.4-1.9,33.5-2.9c7.8-3.7,14.5-2.2,20,4.5c-20,18.8-45.4,14.8-69.4,16.7
			c-45.9,29.3-91.6,29.5-137.3-0.2c-23.9-2.1-49.2,2.4-69.1-16.4c6.8-1.4,13.6-2.7,20.4-4.2C952.4,1548.6,1019.8,1543.3,1087,1558.7
			z"/>
		<path class="st38" d="M667.9,1087c-21.8,11.7-2.6,69.4-53.8,48c-3.6-48.6-11.3-98.1,30.5-136.5l4.1,3.2
			C674.8,1025.7,666.6,1057.4,667.9,1087z"/>
		<path class="st39" d="M1475.6,1627.1c-39,42.5-57.5-10.3-85.4-18.5c21.8-23.3,46-44,80.2-30
			C1497.1,1589.7,1457.6,1612.4,1475.6,1627.1z"/>
		<path class="st40" d="M597.1,1389.3c12.2-13.8,11.6-43.8,43.6-32c29,10.7,13.8,28.8,10.2,46c-2.7,13.1-3.2,26.6-4.7,40
			C623.7,1431,606.4,1413.8,597.1,1389.3z"/>
		<path class="st41" d="M1017,1794.3c11.9,5.1,23.8,10.2,35.7,15.3c-13.8,7.3-7.3,14.4-2.9,25.4c6.8,16.4,17.5,39.9-13.7,44.3
			c-23,3.2-26.2-17.5-26.7-33.5C1008.8,1828.7,992,1807.9,1017,1794.3z"/>
		<path class="st42" d="M1055.2,1623.5c-35.2,7.8-70.4,8.1-105.6-0.1c-10.3-55.7,33-36.6,57.1-38.3
			C1031.3,1583.2,1067,1575.7,1055.2,1623.5z"/>
		<path class="st43" d="M1055.2,1623.5c-35.1-48-70.3-47.5-105.6-0.1c-24.5-9.1-9.5-31.5-15.8-46.6c45.8,0.1,91.5,0.1,137.4,0.2
			C1064.6,1592,1080,1614.7,1055.2,1623.5z"/>
		<path class="st44" d="M1425.5,1711.5c25.6-0.6,52.2,3.1,72.6-18.3c10.1-3.7,20.9-17.2,29.2,2.2
			C1464.4,1755,1453.5,1756.8,1425.5,1711.5z"/>
		<path class="st45" d="M155.5,1035.2c-5.7,12.4-11.4,24.9-17.2,37.3c-18.3-9.5-18.5-28-15.7-42.9c3.9-20.9-14.9-61.6,21.5-57.7
			C174.1,975,156.1,1012.3,155.5,1035.2z"/>
		<path class="st46" d="M1087,1170.6c-48,32.3-102,9.2-152.7,16.2c-5.1-3.9-7-7.8-5.5-12.1c1.5-4.2,3-6.3,4.6-6.3l0.5-1.2
			c45.6-23.6,91.3-24.6,136.8,0.5C1076.4,1166.9,1081.9,1167.9,1087,1170.6z"/>
		<path class="st47" d="M244.8,830.4c-10.9-10.6-21.9-21.1-33-31.7c-18.2-22.9-1.1-36.8,13.1-51.6
			C284.8,762.1,225.7,805.6,244.8,830.4z"/>
		<path class="st48" d="M1070.7,1167.6c-45.6-0.1-91.1-0.2-136.8-0.5c0.9-5.2,2.5-10.1,5.1-14.7c4.6-0.1,9.1-0.4,13.7-1
			c33.2-20.9,66.4-20.9,99.6,0.1c4.6,0.5,9.2,0.7,13.8,0.9C1068.8,1157.2,1070.3,1162.1,1070.7,1167.6z"/>
		<path class="st49" d="M480.8,500.6c-1-14.1-1.9-28.2-2.9-42.3c11.8-16.9,31.5-48,45.6-24.7C541.1,462.5,495.7,477.5,480.8,500.6z"
			/>
		<path class="st50" d="M224.9,747.2c-4.4,17.2-8.7,34.4-13.1,51.6c-9.6,22-21.8,18.5-35.1,3.6c15.2-22-9.5-52.7,15.9-72.6
			C203.4,735.5,214,741.3,224.9,747.2z"/>
		<path class="st51" d="M1278.7,226.3c-16.3-16-54.6-29.2-6.8-53.3C1300.4,187.3,1299.3,205.6,1278.7,226.3z"/>
		<path class="st52" d="M1340.7,1773L1340.7,1773c-21.6-4.5-45.5,39-60.1,6c-9.8-22.3,25.1-25.4,44-31.5l0,0
			c20.9-55.5-10.3-29.6-33.9-23.4c-43.6,11.6-33.6-6.7-13.6-28c18-3.5,50.6-6.8,40.3-26.1c-15.9-29.8-40.7,0.1-61.2,8.5
			c0.1,0.1,0.1,0.1,0.2,0.2c0,0,0,0-0.1,0c-24.9,6.7-66.4,2.5-54.1,43.3c12.3,41.4,16.5,102.1,56.7,115
			c34.4,11.1,83.7-15.7,109.3-54C1372.9,1776.1,1350.9,1775.4,1340.7,1773z"/>
		<path class="st53" d="M192.5,729.8c0.6,25.5-0.5,50.6-15.9,72.6c-3.4-13.8-2.6-29.5-17.8-37.7
			C156.7,740.1,163.7,724.4,192.5,729.8z"/>
		<path class="st54" d="M1140.6,1560.3c-6.7-1.5-13.4-3-20-4.5c14.4-56.3,48.2-4.1,71.3-12.8
			C1178.3,1559.3,1159.2,1559.6,1140.6,1560.3z"/>
		<path class="st45" d="M241.4,1050.1c-28.8,29.3-56.5,31.8-82.1-4.1C186.2,1057.1,213.6,1060.3,241.4,1050.1z"/>
		<path class="st55" d="M412.9,393.1c-7-0.5-14.1-1-21-1.6c5.3-18.3,20.4-15.2,33.9-15.3c5.1,2.6,7.6,6.1,7.6,10.3
			c-0.1,4.7-0.7,7-2,7C425.1,398.9,418.9,398.7,412.9,393.1z"/>
		<path class="st56" d="M426.3,391.8c1.9-5.2,1.6-10.4-0.6-15.7c14.8-0.2,28.4,2,35.3,17.7c-5.1,4.8-11.1,7.6-17.9,8.5
			C436.3,400.9,430.7,397.3,426.3,391.8z"/>
		<path class="st57" d="M445.8,392.8c5.1-0.2,10.2,0,15.2,1c1.4,5.6,0.7,11.1-1.6,16.4c-6.2,3.4-11.9,3-17.3-1.7
			C438.4,402,439.4,396.8,445.8,392.8z"/>
		<path class="st58" d="M443.7,408.3c5.2,1.2,10.4,1.9,15.7,1.9c-0.7,5.3-1.4,10.6-2.1,15.9c-3.1,0.1-6.2,0.2-9.2,0.5
			c-2.9-2.6-5.6-5.1-8.5-7.7C441,415.4,442.4,411.9,443.7,408.3z"/>
		<path class="st59" d="M933.4,1168.2c0.2,6.1,0.6,12.3,0.9,18.4c-65.2-17.3-106.3,59.3-166.4,46c-48.5-10.8-133.6,46.8-137.4-63.2
			C731.6,1169.1,832.4,1168.7,933.4,1168.2z"/>
		<path class="st54" d="M1087,1558.7c-67.4-0.9-134.7-1.7-202.1-2.6C952.6,1534.2,1020,1530.3,1087,1558.7z"/>
		<path class="st60" d="M952.8,612.3c0-22.8,0.1-45.5,0.1-68.3c57.3-25.7,13.8-88.9,51.4-132.4c28.7,74,17,138.2-14.1,200.2
			C982.4,627.8,965.6,616.2,952.8,612.3z"/>
		<path class="st61" d="M1052.2,1151.7c-33.2,0-66.4-0.1-99.6-0.1c-0.2-5-0.2-9.8-0.1-14.8c33.3-14.1,66.7-14.4,100,0.2
			C1052.6,1141.9,1052.6,1146.7,1052.2,1151.7z"/>
		<path class="st62" d="M1052.6,1137c-33.3-0.1-66.7-0.1-100-0.2C985.9,1109.8,1019.2,1109.7,1052.6,1137z"/>
		<path class="st63" d="M667.9,1087c-32.3-22.6-17-56-19.3-85.3c56.6-6.2,112.8-8.2,167,13.4C766.5,1039,717.2,1063,667.9,1087z"/>
		<path class="st56" d="M1188.6,243.4c27.7,0.7,39.3,6.6,39.8,18.4c0.6,16.3-15.4,10.9-24.1,10.8c-8.5-0.1-24.4,7-24.2-9.6
			C1180.1,253.1,1188.7,243.2,1188.6,243.4z"/>
		<path class="st64" d="M849.2,1709.8c-52.6-2.9-66.3,40.2-70,86.9c-4.6,58.2,39.3,79.3,77.7,78.1c44.5-1.4,80.8-34.1,80.7-65.2
			C938.3,1725.3,890.3,1711.9,849.2,1709.8z M896.5,1781c-0.9,29.8-16.9,51.5-45,63.8c-21.1-6.5-36.2-19.8-33.9-41.5
			c2.9-28.8,17-54.5,49.4-56.3C884.4,1746,897,1763.4,896.5,1781z"/>
		<path class="st65" d="M709.8,1663.8c-26.9-12.2-78.8-91.8-95.1,12.8l0.1,0.1c-4.6,20.9-37,24.2-32.5,50.9l-0.1,0.1
			c-18.8,53.5,22,59.8,56.2,69.3c41.7,11.6,67-4,84.8-45.4C738.6,1715.8,745.5,1679.9,709.8,1663.8z M687.6,1706.6
			c-4.7,29.7-14.7,60.7-56.8,54.7c-12.2-32,19.6-54.1,18.8-83.6C671.5,1675.2,691.7,1681.1,687.6,1706.6z"/>
		<path class="st56" d="M445.8,392.8c-0.7,5.2-1.5,10.3-2.2,15.5l0.7,0.5c-4.7,6-10.4,7-17,3.4c-4.8-6.3-9.7-12.8-14.4-19.2
			c4.5-0.6,9-1.1,13.6-1.2C432.9,392.2,439.4,392.4,445.8,392.8z"/>
		<path class="st66" d="M427.3,412.2c5.7-1.1,11.4-2.2,17-3.4c1.2,6,2.4,11.8,3.6,17.8C441.1,421.9,434.3,417,427.3,412.2z"/>
	</g>
</g>
</svg>
