<?xml version="1.0" encoding="utf-8"?>
<!-- Generator: Adobe Illustrator 25.0.1, SVG Export Plug-In . SVG Version: 6.00 Build 0)  -->
<svg version="1.1" id="Layer_1" xmlns="http://www.w3.org/2000/svg" xmlns:xlink="http://www.w3.org/1999/xlink" x="0px" y="0px"
	 viewBox="0 0 439.9 292.8" style="enable-background:new 0 0 439.9 292.8;" xml:space="preserve">
<style type="text/css">
	.st0{fill:#FFFFFF;}
</style>
<path class="st0" d="M343.2,154.8v2c0,4.9-1.5,9.6-4.4,14.1c-2.9,4.5-7.1,9.2-12.6,14.1l-15.6,13.9l-4.6,4.1v-49.9
	c0.5-1.7,1.2-3.3,2-4.8c0.7-1.4,1.6-2.7,2.6-3.8c0.5-0.6,1-1.1,1.5-1.6c1.7-1.5,3.6-2.8,5.8-3.6c2.2-0.9,4.8-1.3,7.8-1.3
	c5.4,0,9.6,1.5,12.7,4.5C341.7,145.4,343.2,149.5,343.2,154.8z"/>
<path class="st0" d="M372.1,155c-1.5,6.9-2.3,14.8-2.3,23.5c0,8.9,0.8,16.7,2.3,23.6c1.5,6.9,3.9,12.7,7.1,17.4
	c3.2,4.7,7.3,8.4,12.2,10.9c1.5,0.8,3.1,1.4,4.7,1.9c3.8,1.2,8,1.8,12.7,1.8c4.7,0,9-0.6,12.9-1.8c3.4-1.1,6.5-2.6,9.2-4.7
	c2.9-2.2,5.4-4.9,7.5-8.1c0.5-0.8,1-1.6,1.5-2.5v33.6H306.1v-18.4H365v-14.8h-54.3l0,0l25.3-21.7c3.5-3.1,6.8-6.1,10-9.1
	c3.1-3,5.9-6.1,8.3-9.4c2.4-3.3,4.2-6.8,5.5-10.5c1.3-3.7,2-7.7,2-12c0-4.6-0.8-8.9-2.3-12.8c-1.5-3.9-3.8-7.3-6.7-10.1
	c-2.9-2.8-6.6-5-10.9-6.6c-4.3-1.6-9.2-2.4-14.7-2.4c-5.5,0-10.2,0.7-14.3,2.2c-0.8,0.3-1.5,0.6-2.2,0.9c-1.6,0.7-3.1,1.4-4.6,2.3
	v-23.4h133.7v35.2c-0.5-0.8-1-1.7-1.5-2.5c-2.1-3.3-4.6-6-7.5-8.1c-5.8-4.4-13.1-6.5-22-6.5c-6.7,0-12.5,1.3-17.4,3.8
	c-4.9,2.5-9,6.1-12.2,10.9C376,142.2,373.6,148,372.1,155z"/>
<path class="st0" d="M429.4,169.1v18.8c0,4.7-0.4,9-1.1,12.9c-0.7,3.9-1.9,7.2-3.5,10c-1.6,2.8-3.8,4.9-6.4,6.4
	c-2.6,1.5-5.8,2.2-9.5,2.2c-3.7,0-6.9-0.8-9.5-2.2c-2.6-1.5-4.8-3.6-6.4-6.4c-1.7-2.8-2.8-6.1-3.5-10c-0.7-3.9-1.1-8.2-1.1-12.9
	v-18.8c0-4.7,0.3-9,1.1-12.9c0.7-3.9,1.9-7.2,3.5-10c1.6-2.8,3.8-4.9,6.4-6.4c2.6-1.5,5.8-2.2,9.5-2.2c3.7,0,6.9,0.8,9.5,2.2
	c2.6,1.5,4.8,3.6,6.4,6.4c1.6,2.8,2.8,6.1,3.5,10C429,160.1,429.4,164.4,429.4,169.1z"/>
<g>
	<path class="st0" d="M88.5,278.5c-0.1,0.6-0.5,1.1-0.9,1.6c0,0-0.1,0.1-0.1,0.1L77.4,292c-1.2,1.3-3.6,0.8-4-0.9l-4.1-15
		c0,0,0-0.1,0-0.2c-0.2-0.6-0.3-1.2-0.1-1.8c0.7-2.9,5.6-4.3,10.9-3.1C85.4,272.2,89.2,275.6,88.5,278.5z"/>
	<path class="st0" d="M149.6,9.1l-2.4,10.6c-2.3-2.1-5.5-3.8-9.1-4.6c-3.7-0.8-7.3-0.7-10.3,0.3l2.4-10.6c0.7-3.2,4-5.3,7.2-4.5
		l7.7,1.7C148.3,2.6,150.3,5.8,149.6,9.1z"/>
</g>
<path class="st0" d="M272.9,186.1c-6-6-15.6-10.2-28.6-12.7l-11.6-2.4c-7.1-1.4-12.3-3.4-15.7-6c-3.3-2.7-5-6.7-5-12.2
	c0-5.7,2-10.1,6.1-13c4.1-3,9.9-4.5,17.3-4.5c7.2,0,13.2,1.3,18.1,3.9c4.8,2.6,8.9,6.1,12.3,10.4l14.7-13
	c-5.1-6.5-11.2-11.4-18.4-14.8c-7.2-3.4-15.7-5.1-25.5-5.1c-0.7,0-1.4,0-2,0v0H125.2L146,25.2c-1.1-1.3-2.5-2.5-4.3-3.5
	c-1.4-0.8-3-1.4-4.7-1.8c-1.7-0.4-3.4-0.5-5-0.4c-2,0.1-3.9,0.6-5.4,1.3L89.2,185.7c-0.6-0.7-1.3-1.4-2-2c-2.7-2.4-5.7-4.2-8.9-5.3
	c-3.2-1.1-6-1.7-8.7-1.9v-1.1c2.6-0.3,5.3-0.9,8-2c2.7-1,5.2-2.7,7.3-4.9c2.1-2.2,3.8-5,5.2-8.4c1.4-3.4,2.1-7.6,2.1-12.4
	c0-10.2-3.1-18.3-9.2-24.4c-6.1-6.1-14.6-9.1-25.4-9.1H0v130.1h63.4c4.7,0,9.1-0.9,13.1-2.8L70.8,267c2.9-1,6.4-1.2,10.3-0.4
	c3.8,0.9,7,2.6,9.1,4.8L121,135.2h22.1v111.5h21.1V135.2h31.9c-0.6,1-1.1,2-1.6,3.1c-2.2,4.7-3.3,9.8-3.3,15.6
	c0,10.4,3.2,18.6,9.5,24.6c6.3,6,15.8,10.1,28.5,12.5l11.6,2c7.6,1.5,12.9,3.7,15.8,6.7c3,3,4.5,7,4.5,12.1c0,6.3-2.1,11.4-6.3,15.1
	c-4.2,3.7-10.5,5.6-18.8,5.6c-7.1,0-13.4-1.4-18.9-4.3c-5.5-2.9-10.6-7.1-15.2-12.7l-14.5,13.6c5.5,6.7,12,12,19.7,16
	c7.6,4,16.9,6,27.9,6c7.5,0,14.1-1,20-2.9c5.8-1.9,10.8-4.7,14.8-8.2c4-3.5,7.1-7.8,9.2-12.8c2.1-5,3.2-10.5,3.2-16.6
	C282,200.3,278.9,192.1,272.9,186.1z M21.1,132.4h32.6c5.2,0,9.3,1.3,12.1,4c2.9,2.7,4.3,6.5,4.3,11.5v6c0,5-1.4,8.8-4.3,11.5
	s-6.9,4-12.1,4H21.1V132.4z M74.7,209.8c0,5.3-1.6,9.5-4.7,12.3c-3.1,2.9-7.4,4.3-12.9,4.3H21.1v-39.5h36.2c5.5,0,9.8,1.4,12.9,4.3
	c3.1,2.9,4.7,7,4.7,12.3V209.8z"/>
</svg>
