<?xml version="1.0" encoding="utf-8"?>
<!-- Generator: Adobe Illustrator 25.0.1, SVG Export Plug-In . SVG Version: 6.00 Build 0)  -->
<svg version="1.1" id="Layer_1" xmlns="http://www.w3.org/2000/svg" xmlns:xlink="http://www.w3.org/1999/xlink" x="0px" y="0px"
	 viewBox="0 0 1910.3 648" style="enable-background:new 0 0 1910.3 648;" xml:space="preserve">
<style type="text/css">
	.st0{fill:#FDFDFD;}
	.st1{fill:#EB222A;}
	.st2{fill:#FFFFFF;}
	.st3{fill:#F9CF0B;}
	.st4{fill:#FEFEFE;}
</style>
<path class="st0" d="M1370.7,595.7c-135.9,0-271.8,0-407.7,0.1c-1.8,0-2.2-0.6-2.2-3.5c0-178.8,0-357.6,0-536.4
	c0-2.9,0.4-3.5,2.2-3.5c271.9,0.1,543.9,0.1,815.8,0c1.8,0,2.2,0.6,2.1,3.5c0,178.8,0,357.6,0,536.4c0,2.9-0.4,3.5-2.1,3.5
	C1642.8,595.7,1506.7,595.7,1370.7,595.7z"/>
<path class="st1" d="M1371.2,325.2c-134.7,0-269.3,0-404,0.1c-5.1,0-6.4-1.2-6.4-6.3c0.2-86.8,0.2-173.7,0-260.5
	c0-4.8,1.1-6.1,6-6.1c269.3,0.1,538.6,0.1,807.9,0c4.8,0,6.2,1.1,6.2,6c-0.2,87-0.2,174,0,261.1c0,4.6-1.1,5.8-5.8,5.8
	C1640.5,325.2,1505.8,325.2,1371.2,325.2z"/>
<path class="st2" d="M680.3,295.7c-15-38.1-38-70.9-65.5-100.9c-5.8-6.3-12.1-12.1-18.6-18c-11.3,16.6-22.2,32.6-33,48.9
	c-2.2,3.3-3.3,4.3-6.8,0.9c-27.7-27-60.4-45.1-98-54.3c-9.3-2.2-18.8-3.3-28-5.1c7.5-20.7,4.8-39.3-10.4-55.2
	c-7.3-7.6-10.2-16.6-11.2-26.8c-1-10.1-0.8-20.2,0.1-30.7c-0.8,0.5-1.2,0.6-1.3,0.8c-1.2,2.4-2.4,4.7-3.4,7.2
	c-5.8,14.3-9.7,28.8-6,44.3c1.9,8,6.9,14.2,11.2,20.9c7,10.9,6.8,25.8-0.4,35.4c-1.6,2.1-3.2,3.1-6.1,3.2
	c-10.8,0.6-21.6,1.3-32.2,3.3c-40,7.7-75.3,25-105.3,52.5c-3,2.8-4.1,2.3-6-0.9c-8.9-14.7-18.1-29.1-27-43.8
	c-2.2-3.7-3.7-3.7-6.9-1.2c-19.2,15-35.9,32.2-50.6,51.5c-40.2,52.7-59.7,111.4-51.8,178c4.8,40,18.2,77.1,39.7,111.2
	c8.4,13.3,18.3,25.6,27.1,38.7c9.8,14.5,24,24,41.1,28.2c28,6.9,54.4,2,79.3-11.8c4.4-2.4,7.6-2.5,12.1-0.4
	c26.9,12.3,55.4,18.3,84.9,18.5c32.1,0.2,62.9-6.6,91.9-20.4c2.5-1.2,4.6-1.5,7.3-0.3c21.6,10,44.2,13.6,67.9,10.3
	c25.7-3.6,44.7-16.8,57-39.5c1.7-3.2,3.7-6,5.8-8.8c6.8-8.9,12.9-18.2,18.3-27.9c21.4-38.2,33.1-79.1,36.6-122.8
	C694.5,351.5,691.1,323.3,680.3,295.7z M560.4,281.1c0.4-0.7,1.2-1.2,2.1-2.3c19.8,30.8,29.7,64.1,29.6,101.5
	c-8.7-7.6-16.2-14.8-24.3-21.3c-11.8-9.3-24.1-17.9-37.2-25.3c-3.1-1.7-3.6-3.3-1.7-6.2C539.4,312.1,549.9,296.5,560.4,281.1z
	 M284,315.3c2.5,4,4.9,8.2,7.5,12.2c1.1,1.7,1.6,2.9-0.8,4.2c-23.4,12.7-44.8,28.4-64.3,46.7c0,0-0.3,0-1.2-0.1
	c0-37.9,11-72.3,32.8-104.4C267,288.1,275.5,301.7,284,315.3z M198.3,406c0.4,2.5,0.5,4.8-1.1,7.1c-12.5,18.5-21,38.7-24.5,61.8
	c-40.8-87.4-27.7-180.3,50.3-257.7c5.9,9.6,11.6,19,17.5,28.4c1.5,2.4,0,3.6-1.1,5.1c-19.9,26.2-33,55.4-39.2,87.6
	C195.9,360.8,195.1,383.4,198.3,406z M208,530.5c-11.7-25.6-9-51.7,1.4-77.4c16.3,40.3,41.7,73,76.9,98.3
	C258.9,563.7,222.4,562.2,208,530.5z M449.4,557c-34.6,7.8-68.6,5.7-102-6c-5.6-2-5.6-2-1.5-6.3c25.7-27,43.5-58.9,57.6-93.1
	c0.4-1,0.9-1.9,1.8-3.8c14.5,40,36,73.9,68.2,101.4C465.6,553.2,457.5,555.2,449.4,557z M499.7,532.9
	c-28.6-20.8-47.9-48.8-61.9-80.8c-5.9-13.7-10.2-27.8-11.9-42.7c-0.4-4-1.9-5.9-6.6-5.6c-7.8,0.5-15.7,0.4-23.4-0.2
	c-5-0.3-6.9,1.4-8.3,6.1c-10.1,34.6-25.3,66.9-46.7,96.2c-7.1,9.8-15.3,18.6-24.2,26.8c-2,1.8-3.4,2.1-5.9,0.5
	c-41.1-26.7-68-63.6-80.3-111.2c-0.7-2.8-0.4-4.5,1.5-6.6c23.5-27.8,52.2-48.7,84.7-64.7c3.9-1.9,5-3.9,5.5-8.2
	c1.6-14.5-3-26.6-11.2-38.5c-11.2-16.3-20.9-33.5-31.5-50.3c-1.6-2.6-1.6-4,0.7-6.2c27.2-25.9,59-43,96.2-49.4
	c4.7-0.8,9.4-1.4,14.1-2.1c3.3-0.5,4.4,0.6,4.7,4.1c1.6,17.7,6.4,34.3,17,48.8c1,1.3,1.5,3.3,4.1,3.4c-0.7-5.8-2.5-11.3-3.4-17
	c-1.7-11.7-1.8-23.3-1.8-35c0-4.6,1.9-5.6,6-5.3c40.2,2.6,76.2,16,107.5,41.5c5.5,4.5,10.4,9.7,15.8,14.3c2.8,2.4,2.9,4.4,0.8,7.5
	c-11.8,17-22.9,34.5-35.1,51.2c-5.5,7.5-6.6,15.4-7.6,24.1c-1.2,11.1,2.3,17.1,12.7,22.6c28.2,14.9,52.9,34.8,73.7,59.4
	c2,2.4,2.4,4.5,1.6,7.7c-12.4,46.9-39.3,83.3-79.8,109.9C503.9,535,502.2,534.7,499.7,532.9z M608.3,521.9
	c-7.2,18.1-20.8,28.2-40.1,30.1c-11.1,1.1-22.2,0.9-34.1-2.7c33.7-25.4,57.8-56.8,73.2-96.2c3.6,7.5,5.2,14.5,6.4,21.5
	C616.5,490.8,614.3,506.6,608.3,521.9z M663.8,376.1c-1.9,28.7-8.1,56.5-18.9,83.3c-0.8,2-1.8,4.1-2.7,6.2
	c-4.9-18.7-12.6-35.5-22.9-51.3c-2.7-4.1-0.2-8.4,0.2-12.4c5.5-53.1-6.9-101.6-37.5-145.4c-1.9-2.8-2.1-4.6-0.1-7.3
	c5.6-7.9,11-16,16.4-24.2c1.4-2.1,2.4-3.2,4.5-0.6c25.6,30.6,47.2,63.4,57.5,102.6C664.4,343.3,664.9,359.7,663.8,376.1z"/>
<path class="st2" d="M385.8,295.6H436c-1,3.3-3.7,5.2-5.7,7.4c-5.7,6.3-11.7,12.4-17.5,18.6c-1.1,1.2-1.9,2.7-3.7,0.7
	c-7.7-8.5-15.5-17-23.3-25.5C385.6,296.6,385.8,296.1,385.8,295.6z"/>
<path class="st1" d="M1446.5,448.9c-4.1,8.1-8.3,16.3-12.4,24.4c-2.2,4.4-5.2,8.6-6.6,13.3c-3.1,10.7-9.7,14.2-20.4,12.5
	c-3.1-0.5-4.7-1.4-6-4c-6.9-13.9-14-27.8-21.1-41.6c-0.8-1.6-1.1-3.7-3.3-4.8c-1.2,1.7-0.6,3.5-0.6,5.2c0,22.6-0.2,45.1,0.1,67.7
	c0.1,5.1-1.6,6.3-6.2,5.9c-5.5-0.4-11-0.2-16.5,0c-2.8,0.1-4-0.5-4-3.7c0.1-43.7,0.1-87.4,0-131.1c0-2.9,0.9-3.7,3.6-3.5
	c4.6,0.2,9.4,0.7,13.8-0.1c7.5-1.3,10.4,2.5,13.2,8.6c9.5,20.6,19.5,40.9,29.4,61.2c0.7,1.3,0.8,3.6,2.7,3.6c1.9,0,2-2.2,2.6-3.5
	c10.6-22,21.2-43.9,31.7-66c1.4-2.9,2.9-3.9,5.9-3.7c5.7,0.2,11.4,0.4,17.1,0c4.1-0.3,5,1.2,4.9,5.1c-0.2,28.6-0.1,57.2-0.1,85.8
	c0,14.2-0.2,28.4,0.1,42.6c0.1,4.2-1.2,5.1-5.1,4.9c-5.7-0.3-11.4-0.3-17.1,0c-3.9,0.2-4.6-1.2-4.6-4.8c0.2-23.4,0.1-46.9,0.1-70.3
	c0-1,0-2.1,0-3.1C1447.3,449.2,1446.9,449.1,1446.5,448.9z"/>
<path class="st1" d="M1656.8,444.2c0,3.3,0,6.1,0,8.9c0,23.3-0.1,46.5,0.1,69.8c0,3.7-1,4.9-4.7,4.7c-5.7-0.3-11.4-0.4-17.1,0
	c-4,0.3-5-0.9-5-4.9c0.2-28.4,0.1-56.8,0.1-85.2c0-14.4,0.1-28.8-0.1-43.1c-0.1-3.8,0.6-5.4,4.8-5.1c6.4,0.5,13.8-1.7,18.8,0.9
	c4.8,2.5,7.1,9.8,10.5,15c13.6,21,27.1,41.9,40.7,62.9c0.9,1.4,1.4,3.3,4.1,3.6c0-3.9,0-7.8,0-11.6c0-22,0.1-44-0.1-66
	c0-3.7,1-4.9,4.7-4.7c6,0.3,12.1,0.2,18.1,0c2.8-0.1,4.1,0.5,4.1,3.7c-0.1,43.7-0.1,87.3,0,131c0,2.9-1,3.9-3.7,3.5
	c-0.9-0.1-1.8-0.2-2.7,0c-13.5,2.8-20.9-3.6-27.5-15c-12.7-21.9-27.1-42.8-40.8-64C1660.2,447,1659.7,445.1,1656.8,444.2z"/>
<path class="st1" d="M1326,527.4c-9,0-18.1-0.2-27.1,0.1c-3.2,0.1-3.8-1.9-4.8-3.9c-7.7-15.7-15.4-31.4-22.9-47.2
	c-1.6-3.3-3.4-4.8-7.2-4.4c-4.7,0.4-11-1.4-13.9,1c-3.1,2.5-0.9,9-1,13.7c-0.1,12.2-0.2,24.5,0,36.7c0,3.3-0.9,4.3-4.2,4.2
	c-5.9-0.3-11.7-0.3-17.6,0c-4,0.2-5-0.9-5-4.9c0.2-29.5,0.1-58.9,0.1-88.4c0-13.5,0.1-27-0.1-40.5c0-3.2,0.4-4.7,4.2-4.6
	c17.4,0.2,34.8-0.1,52.2,0.1c29.6,0.4,49.8,28.3,40.3,55.5c-3.3,9.4-9.4,16.7-18.6,20.8c-3.9,1.8-4.3,3.3-2.4,6.9
	c9,16.9,17.7,33.8,26.4,50.8C1325.3,524.5,1326.3,525.6,1326,527.4z"/>
<path class="st1" d="M1105.1,458.3c0-21.5,0.1-43-0.1-64.4c0-3.8,1-4.7,4.7-4.6c27,0.2,54.1,0.2,81.1,0c4,0,5.3,1,5,5
	c-0.4,4.9-0.3,10,0,14.9c0.2,3.6-1.1,4.4-4.5,4.4c-18.1-0.2-36.3,0.1-54.4-0.2c-4.1-0.1-5.5,1-5.3,5.2c0.4,7.6,0.3,15.3,0,22.9
	c-0.1,3.6,1.1,4.4,4.5,4.4c15.1-0.2,30.2,0.1,45.3-0.2c4.1-0.1,5.3,1.1,5,5.1c-0.3,4.8-0.4,9.6,0,14.4c0.4,4.2-1.4,4.9-5.2,4.9
	c-14.8-0.2-29.5,0.1-44.3-0.2c-4.6-0.1-5.6,1.4-5.4,5.7c0.4,7.6,0.3,15.3,0,22.9c-0.2,3.9,0.8,5.1,4.9,5.1
	c17.8-0.2,35.6,0.1,53.3-0.2c5.2-0.1,6.3,1.6,5.9,6.2c-0.4,4.8-0.2,9.6,0,14.4c0.1,2.7-0.6,3.7-3.5,3.7c-27.9-0.1-55.8-0.1-83.8,0
	c-3.6,0-3.4-1.8-3.4-4.3C1105.1,501.6,1105.1,479.9,1105.1,458.3z"/>
<path class="st1" d="M1612.6,527.4c-8.3,0-16.3-0.1-24.3,0c-2.3,0-3.5-0.7-4.2-3c-1.9-6.1-4.2-12.1-5.9-18.2c-0.8-3-2.4-3.4-5-3.4
	c-14,0.1-28.1,0.1-42.1,0c-2.8,0-4,1-4.8,3.6c-1.8,5.9-4.1,11.7-5.9,17.6c-0.7,2.3-1.6,3.5-4.4,3.5c-8-0.2-16-0.1-24.4-0.1
	c5.8-16,11.4-31.6,17-47.2c10.5-28.9,21.1-57.8,31.5-86.8c1.1-3.2,2.4-4.9,5.9-4.3c0.7,0.1,1.4,0,2.1,0c4.8,0.1,10.6-1.4,14,0.9
	c3.1,2.1,3.6,8.1,5.2,12.4c14.6,40.1,29.2,80.1,43.8,120.2C1611.6,524.2,1612,525.7,1612.6,527.4z"/>
<path class="st1" d="M1074.1,440.7c0,14.7,0.4,29.5-0.1,44.2c-0.8,22.2-14.9,38.3-36.9,42.4c-15.4,2.9-30,1.1-42.6-9.4
	c-2.9-2.4-4-4.1-0.4-7.1c4.2-3.5,8-7.6,11.7-11.6c1.8-1.9,2.9-2.2,4.9-0.2c5.9,5.8,13.4,6.1,20.9,4.7c10.2-1.9,15.8-9.5,15.8-20.9
	c0.1-29.5,0.1-58.9-0.1-88.4c0-4,0.8-5.6,5.2-5.3c5.7,0.4,11.4,0.3,17.1,0c3.7-0.2,4.8,0.9,4.8,4.7c-0.2,15.6-0.1,31.2-0.1,46.9
	C1074.2,440.7,1074.1,440.7,1074.1,440.7z"/>
<path d="M827.3,52.2c16.2,0,28.9,12.7,28.8,28.9c-0.1,15.8-13.3,28.8-29.3,28.7c-15.9-0.1-29-13.3-28.8-29.2
	C798.3,64.2,810.7,52.1,827.3,52.2z"/>
<path class="st3" d="M827.8,440.9c15.9,0.2,28.5,13.3,28.3,29.2c-0.2,15.6-13.8,28.9-29.3,28.6c-16.2-0.3-28.9-13.5-28.6-29.6
	C798.5,452.6,811.1,440.7,827.8,440.9z"/>
<path class="st3" d="M827.3,538.2c16.3,0,28.9,12.8,28.8,29c-0.1,15.6-13.4,28.6-28.9,28.6c-16.2,0-29-12.8-28.9-29
	C798.2,550.4,810.7,538.1,827.3,538.2z"/>
<path d="M826.9,206.9c-16,0-29-13.1-28.8-29c0.1-16.1,13-28.8,29.1-28.7c16,0,29,13,28.9,29C856.1,194.1,843,206.9,826.9,206.9z"/>
<path class="st1" d="M826.8,303.9c-16-0.1-28.6-12.8-28.5-28.7c0-15.8,13-28.9,28.6-28.9c15.8-0.1,29.2,13.2,29.2,29
	C856,291.4,843.1,304,826.8,303.9z"/>
<path class="st1" d="M826.9,401.1c-16.1-0.1-28.7-12.6-28.7-28.6c0-16.1,13.2-29.3,29-29.1c15.9,0.2,29,13.6,28.8,29.5
	C855.8,388.6,842.8,401.2,826.9,401.1z"/>
<path class="st4" d="M1113.4,189.8c0-32.5,0.1-65-0.1-97.5c0-3.8,0.8-5.1,4.9-5.1c26.7,0.2,53.3,0,80,0.1
	c32.6,0.2,59.9,25.3,62.3,56.9c2.7,36-18.5,64.6-52.5,70c-15.9,2.5-31.9,0.8-47.9,0.9c-5.1,0-6.4,1.2-6.4,6.4
	c0.3,21.8,0,43.7,0.2,65.5c0,3.7-0.6,5.3-4.8,5.1c-10.3-0.4-20.6-0.3-30.9,0c-4.1,0.1-4.9-1.2-4.9-5
	C1113.5,254.8,1113.4,222.3,1113.4,189.8z"/>
<path class="st4" d="M1350.4,189.8c0-32.5,0.1-65-0.1-97.5c0-3.8,0.8-5.1,4.9-5.1c26.7,0.2,53.3,0,80,0.1
	c32.6,0.2,59.9,25.3,62.3,56.9c2.7,36-18.5,64.6-52.5,70c-15.9,2.5-31.9,0.8-47.9,0.9c-5.1,0-6.4,1.2-6.4,6.4
	c0.3,21.8,0,43.7,0.2,65.5c0,3.8-0.6,5.3-4.8,5.1c-10.3-0.4-20.6-0.3-30.9,0c-4.1,0.1-4.9-1.2-4.9-5
	C1350.5,254.8,1350.4,222.3,1350.4,189.8z"/>
<path class="st4" d="M1588.4,189.5c0-32.3,0.1-64.6-0.1-96.9c0-4.2,1-5.4,5.2-5.2c10.5,0.3,21,0.2,31.5,0c3,0,3.9,0.7,3.9,3.8
	c-0.1,65.7-0.1,131.4,0,197c0,3-0.8,3.9-3.9,3.9c-10.7-0.2-21.3-0.3-32,0.1c-4.4,0.2-4.7-1.6-4.7-5.2
	C1588.5,254.5,1588.4,222,1588.4,189.5z"/>
<path class="st2" d="M385.8,295.6H436c-1,3.3-3.7,5.2-5.7,7.4c-5.7,6.3-11.7,12.4-17.5,18.6c-1.1,1.2-1.9,2.7-3.7,0.7
	c-7.7-8.5-15.5-17-23.3-25.5C385.6,296.6,385.8,296.1,385.8,295.6z"/>
<path class="st4" d="M1249.1,431.6c0-5,0.1-9.9,0-14.9c-0.1-2.6,0.8-3.4,3.3-3.3c8.5,0.2,17.1-0.1,25.6,0.3
	c9.8,0.5,16.7,8.1,16.8,17.8c0.1,9.7-6.8,17.6-16.5,18.2c-8.7,0.5-17.4,0.2-26.1,0.4c-2.8,0.1-3.2-1.2-3.2-3.5
	C1249.2,441.5,1249.1,436.6,1249.1,431.6z"/>
<path class="st4" d="M1535,480.9c5.9-16.9,11.5-33,17.3-49.8c0.9,1.3,1.5,2,1.8,2.7c4.9,14.4,9.6,28.9,14.6,43.3
	c0.9,2.6,1,3.9-2.4,3.9C1556.1,480.8,1546,480.9,1535,480.9z"/>
<path class="st1" d="M1153.9,150.9c0-8.2,0.1-16.3-0.1-24.5c0-2.7,0.6-3.8,3.5-3.7c12.3,0.4,24.5-0.4,36.8,0.6c16.1,1.3,26,12,26,28
	c-0.1,15.7-9.8,26-26,27.3c-12.3,1-24.5,0.2-36.8,0.6c-2.9,0.1-3.6-1-3.5-3.7C1154,167.2,1153.9,159.1,1153.9,150.9z"/>
<path class="st1" d="M1410.8,123.3c7.1,0,14.2-0.4,21.3,0.1c15.3,1.1,25.1,12.1,25.1,27.7c0,15.4-9.5,25.9-24.7,27.3
	c-12.8,1.2-25.6,0.3-38.4,0.7c-2.8,0.1-3.2-1.2-3.1-3.5c0.1-16.5,0.1-33,0-49.6c0-2.6,0.9-3.4,3.4-3.3c5.5,0.2,11,0,16.5,0
	C1410.8,122.9,1410.8,123.1,1410.8,123.3z"/>
<path class="st2" d="M483.7,275.2c-2.7-6.5-8.1-8.8-14.9-8.8c-19,0.1-38.1,0-57.1,0c0,0,0,0,0,0.1c-19.6,0-39.1,0-58.7,0
	c-6.7,0-11.9,2.4-14.5,8.7c-2.5,6.1-1.2,11.6,3.4,16.5c19.2,20.7,38.3,41.5,57.4,62.3c6.7,7.2,16,7.2,22.8,0
	c19.3-20.6,38.5-41.3,57.8-61.8C484.6,287.1,486.4,281.6,483.7,275.2z M430.3,303c-5.7,6.3-11.7,12.4-17.5,18.6
	c-1.1,1.2-1.9,2.7-3.7,0.7c-7.7-8.5-15.5-17-23.3-25.5c-0.2-0.2,0-0.6,0-1.2H436C435,298.8,432.3,300.7,430.3,303z"/>
<path class="st2" d="M423.8,508.5c-3.7,13.7-7.5,27.4-11.3,41.1c-0.5,2-1.1,3.8-3.6,3.8c-2.8,0-3.4-2.2-3.9-4.2
	c-3.3-12-6.6-24.1-9.8-36.1c-0.4-1.5-0.8-3.1-1.2-4.6c-0.9-3.6,0.4-5.4,4.2-5.4h10.6c3.6,0,7.1,0.1,10.7,0
	C423.4,503,424.7,505.1,423.8,508.5z"/>
<path class="st2" d="M418,490.2c0,5.1-3.9,9-9.1,9.1c-5.2,0.1-9.3-3.6-9.5-8.8c-0.2-5.1,4-9.6,9.1-9.7
	C413.7,480.7,418,485,418,490.2z"/>
</svg>
